<svg width="512" height="512" viewBox="0 0 512 512" fill="none" xmlns="http://www.w3.org/2000/svg">
<rect width="512" height="512" fill="white"/>
<path d="M140.111 230.091H150.875V263.152C150.875 266.864 149.988 270.112 148.215 272.896C146.458 275.68 143.997 277.851 140.832 279.409C137.667 280.95 133.98 281.721 129.77 281.721C125.544 281.721 121.849 280.95 118.684 279.409C115.518 277.851 113.057 275.68 111.301 272.896C109.544 270.112 108.666 266.864 108.666 263.152V230.091H119.429V262.232C119.429 264.171 119.852 265.895 120.697 267.403C121.559 268.911 122.769 270.096 124.326 270.957C125.884 271.819 127.699 272.25 129.77 272.25C131.858 272.25 133.673 271.819 135.214 270.957C136.772 270.096 137.973 268.911 138.819 267.403C139.68 265.895 140.111 264.171 140.111 262.232V230.091ZM166.73 281V230.091H177.494V252.538H178.165L196.485 230.091H209.387L190.495 252.886L209.61 281H196.734L182.789 260.07L177.494 266.533V281H166.73ZM221.992 281V230.091H256.296V238.965H232.756V251.096H254.531V259.97H232.756V272.126H256.396V281H221.992ZM271.853 281V230.091H282.617V252.538H283.288L301.608 230.091H314.51L295.618 252.886L314.733 281H301.857L287.912 260.07L282.617 266.533V281H271.853ZM337.879 230.091V281H327.115V230.091H337.879ZM362.41 230.091V235.46C362.41 236.985 362.111 238.543 361.515 240.134C360.935 241.708 360.156 243.199 359.178 244.608C358.2 246 357.132 247.185 355.972 248.163L351.298 245.403C352.127 244.094 352.856 242.644 353.486 241.053C354.132 239.462 354.455 237.615 354.455 235.51V230.091H362.41ZM403.446 253.706L393.752 254.303C393.586 253.474 393.23 252.728 392.683 252.065C392.136 251.386 391.415 250.847 390.52 250.45C389.642 250.035 388.59 249.828 387.363 249.828C385.723 249.828 384.339 250.176 383.212 250.872C382.085 251.552 381.522 252.463 381.522 253.607C381.522 254.518 381.886 255.289 382.616 255.918C383.345 256.548 384.596 257.054 386.369 257.435L393.28 258.827C396.992 259.589 399.759 260.815 401.582 262.506C403.405 264.196 404.316 266.417 404.316 269.168C404.316 271.67 403.579 273.866 402.104 275.755C400.646 277.644 398.641 279.119 396.089 280.18C393.553 281.224 390.628 281.746 387.314 281.746C382.259 281.746 378.232 280.693 375.233 278.589C372.25 276.468 370.501 273.584 369.988 269.938L380.403 269.391C380.718 270.933 381.48 272.109 382.69 272.921C383.9 273.717 385.449 274.114 387.339 274.114C389.195 274.114 390.686 273.758 391.813 273.045C392.956 272.316 393.536 271.38 393.553 270.237C393.536 269.275 393.13 268.488 392.335 267.875C391.54 267.245 390.313 266.765 388.656 266.433L382.044 265.116C378.315 264.37 375.539 263.077 373.716 261.238C371.91 259.398 371.007 257.054 371.007 254.203C371.007 251.75 371.67 249.638 372.995 247.864C374.338 246.091 376.219 244.724 378.638 243.763C381.074 242.802 383.925 242.321 387.189 242.321C392.012 242.321 395.807 243.34 398.574 245.379C401.358 247.417 402.982 250.193 403.446 253.706Z" fill="#19796B"/>
</svg>
